<svg width="32" height="32" viewBox="0 0 32 32" fill="none" xmlns="http://www.w3.org/2000/svg">
<path d="M12.9336 3.70403C12.6724 3.63191 12.3931 3.66892 12.1597 3.80659L4.26165 8.39199L3.42352 6.85571L1.66778 7.81357L3.00111 10.2575C3.13098 10.4954 3.35178 10.6704 3.61298 10.7425C3.87418 10.8146 4.15351 10.7776 4.38698 10.6399L12.2848 6.0546L13.0443 7.44693C13.2834 7.29593 13.5266 7.1482 13.774 7.00468C14.1076 6.81127 14.4439 6.62852 14.7812 6.45469L13.5455 4.18912C13.4156 3.9512 13.1948 3.77613 12.9336 3.70403Z" fill="white"/>
<path d="M14.7787 6.45436L16.8243 10.2045L17.4815 9.81015C17.712 9.6718 17.9887 9.63215 18.2488 9.70013C18.509 9.76812 18.7308 9.93803 18.8642 10.1715L21.5309 14.8382C21.8008 15.3104 21.6436 15.9119 21.1771 16.1918L17.8438 18.1918C17.6132 18.3302 17.3366 18.3698 17.0764 18.3018C16.8163 18.2338 16.5944 18.0639 16.4611 17.8304L13.7944 13.1638C13.5244 12.6915 13.6816 12.09 14.1482 11.8101L15.1079 11.2343L13.0418 7.4466C12.3799 7.8646 11.749 8.30775 11.1428 8.75659C8.61163 10.6308 7.61777 13.9694 8.86777 16.6596C9.5831 18.199 10.3522 19.786 11.2499 21.3475C12.1475 22.909 13.1316 24.3715 14.1014 25.7632C15.7983 28.1986 19.1797 29.0042 22.0639 27.7388C23.0033 27.3267 23.9568 26.8694 24.8895 26.3286C25.8223 25.7878 26.6932 25.1872 27.5183 24.5763C30.0493 22.7022 31.0435 19.3635 29.7934 16.6732C29.078 15.1339 28.3089 13.5468 27.4113 11.9854C26.5136 10.4239 25.5296 8.96148 24.5598 7.56968C22.8629 5.13429 19.4813 4.32875 16.5972 5.59401C15.9938 5.85877 15.3846 6.14217 14.7787 6.45436Z" fill="white"/>
<path d="M17.6345 12.0508L19.3086 14.9805L17.6906 15.9513L16.0165 13.0216L17.6345 12.0508Z" fill="white"/>
</svg>
